<svg xmlns="http://www.w3.org/2000/svg" viewBox="0 0 205 20"><path fill="#DADADA" d="M189.1 5.562a27.406 27.406 0 0 1 2.483-2.97A27.426 27.426 0 0 1 194.477 0l-1.082 4.332-4.295 1.23z"/><path fill="#575756" d="M196.609 7.431a27.02 27.02 0 0 1-7.508-1.87l4.294-1.23 3.214 3.1z"/><path fill="#9D9D9C" d="M194.477.003c.52 1.16.968 2.372 1.33 3.631.363 1.265.63 2.533.802 3.8l-3.214-3.102 1.082-4.33zM187.583 14.463a27.103 27.103 0 0 1-3.632-6.826l3.788 2.365-.156 4.461z"/><path fill="#575756" d="M191.685 7.908a27.119 27.119 0 0 1-4.102 6.555l.156-4.46 3.946-2.095z"/><path fill="#DADADA" d="M183.95 7.638a26.959 26.959 0 0 1 7.735.27l-3.946 2.094-3.788-2.364z"/><g><path fill="#575756" d="M195.59 18.655a27.274 27.274 0 0 1-7.621 1.342l3.422-2.868 4.199 1.526z"/><path fill="#9D9D9C" d="M190.615 12.734c.95.847 1.853 1.773 2.696 2.779a26.849 26.849 0 0 1 2.279 3.142l-4.199-1.526-.776-4.395z"/><path fill="#DADADA" d="M187.968 19.997c.26-1.247.611-2.49 1.062-3.72.45-1.238.98-2.419 1.588-3.544l.773 4.396-3.423 2.868z"/></g><g><path fill="#9D9D9C" d="M202.054 12.344A26.936 26.936 0 0 1 200.977 20l-1.673-4.14 2.75-3.516z"/><path fill="#DADADA" d="M194.88 15.24c1.1-.64 2.261-1.212 3.478-1.703 1.219-.493 2.455-.89 3.697-1.193l-2.751 3.516-4.425-.62z"/><path fill="#575756" d="M200.977 19.999a26.726 26.726 0 0 1-3.215-2.158c-1.037-.809-2-1.68-2.883-2.601l4.425.62 1.673 4.139z"/></g><g><path fill="#9D9D9C" d="M198.045 4.253A27.163 27.163 0 0 1 205 7.643l-4.458.31-2.497-3.7z"/><path fill="#DADADA" d="M198.584 11.964a27.006 27.006 0 0 1-.54-7.712l2.498 3.7-1.958 4.012z"/><path fill="#575756" d="M205 7.642a27.16 27.16 0 0 1-6.416 4.322l1.958-4.012 4.458-.31z"/></g><g><path d="M4.311 7.17h-.738L0 14.933h.878l1.105-2.397h3.913c.086.184 1.093 2.397 1.093 2.397h.898L4.311 7.17zM2.32 11.788c.18-.39 1.375-3.008 1.616-3.543.246.535 1.45 3.153 1.628 3.543H2.32zM12.489 12.383c0 .77.227 1.337.678 1.789.597.602 1.664.905 3.001.905.75 0 3.316-.163 3.316-2.291 0-1.873-1.71-2.045-3.22-2.197-1.556-.157-2.706-.329-2.706-1.385 0-.525.27-.905.825-1.16.572-.263 1.19-.302 1.83-.302.492 0 1.397.076 1.906.585.236.236.356.612.356.983l.785.009c0-.57-.182-1.144-.542-1.503-.656-.657-1.76-.793-2.57-.793-1.113 0-2.21.238-2.884.911-.352.352-.53.78-.53 1.27 0 1.831 1.868 1.981 3.333 2.113.694.062 1.349.121 1.834.334.515.223.755.596.755 1.17 0 .363-.122.67-.36.908-.57.568-1.75.63-2.179.63-1.058 0-1.91-.23-2.36-.68-.326-.325-.493-.727-.496-1.296h-.772zm7.953-5.215v.76h3.01v7.005h.8V7.927h3.01v-.76h-6.82zm10.35 0l-3.575 7.765h.879l1.106-2.4h3.915l1.092 2.4h.897l-3.575-7.765h-.739zm.364 1.074l1.627 3.545H29.54l1.616-3.545zm5.928-1.074v7.765h.81v-3.376h3.149c1.385 0 1.71.278 1.746 1.484.03 1.262.086 1.676.254 1.842l.05.05h.835l-.13-.25c-.128-.241-.173-.723-.185-1.978-.012-.768-.433-1.328-1.101-1.574.871-.39 1.229-1.178 1.229-1.827 0-1.437-.88-2.136-2.686-2.136h-3.97zm4.008.76c1.228 0 1.825.442 1.825 1.352 0 1.021-.635 1.518-1.94 1.518h-3.083v-2.87h3.198zm11.875-.76l-3.575 7.765h.892l1.093-2.4h3.915l1.105 2.4h.883L53.72 7.168h-.752zm.375 1.074l1.616 3.545h-3.242l1.626-3.545zM80.2 7.168l-3.574 7.765h.89l1.094-2.4h3.915l1.105 2.4h.885l-3.563-7.765H80.2zm.375 1.074c.244.535 1.44 3.156 1.616 3.545h-3.242l1.626-3.545zM59.257 7.168v7.765h5.602v-.76h-4.792V7.169h-.81zm7.335 0v7.765h5.591v-.76h-4.782V7.169h-.81zm7.269 0v7.765h.8V7.168h-.8zm19.017 0v6.48c-.5-.606-5.628-6.48-5.628-6.48h-.808v7.765h.796v-6.48c.5.605 5.63 6.48 5.63 6.48h.807V7.168h-.797zm13.2 0v7.765h6.272v-.76h-5.467V11.29h5.188v-.746h-5.188V7.927h5.404v-.76h-6.21zm-10.146 3.894c0 2.451 1.707 4.036 4.214 4.036 2.336 0 3.748-1.575 3.935-3.134l.024-.19h-.844l-.025.141c-.267 1.496-1.452 2.423-3.09 2.423-2.416 0-3.381-1.695-3.381-3.282 0-1.939 1.402-3.294 3.411-3.294 1.53 0 2.631.73 2.944 1.952l.033.13h.842l-.047-.208c-.382-1.673-1.757-2.634-3.772-2.634-2.856 0-4.244 2.105-4.244 4.06zM126.283 7.138h1.137v7.8h-.793v-6.74h-.027l-3.44 6.74h-.748l-3.43-6.746h-.02v6.746h-.8v-7.8h1.174l3.475 6.783 3.472-6.783zM130.287 7.18v7.768h6.28v-.763h-5.469V11.3h5.192v-.744h-5.192v-2.62h5.408V7.18h-6.219zM147.143 7.14h1.14v7.803h-.796V8.208h-.025l-3.443 6.735h-.743l-3.434-6.75h-.02v6.75h-.799V7.14h1.17l3.478 6.783 3.472-6.783zM151.974 7.895h3.465c.881 0 1.513.303 1.513 1.258 0 1.042-.697 1.389-1.783 1.389h-3.195V7.895zm-.8 7.038h4.317c1.197 0 2.565-.586 2.565-2.213 0-.998-.616-1.743-1.64-1.9v-.02c.926-.222 1.336-.922 1.336-1.677 0-1.112-.635-1.962-2.158-1.962h-4.42v7.772zm.8-3.66h3.585c.935 0 1.637.318 1.637 1.447 0 1.067-.79 1.482-1.833 1.482h-3.39v-2.928zM160.598 7.173v7.765h6.278v-.762h-5.473v-2.884h5.194v-.745h-5.194V7.93h5.408v-.757h-6.213zM176.03 14.689c-.13-.244-.174-.725-.184-1.982-.012-.765-.436-1.325-1.102-1.572.874-.389 1.227-1.178 1.227-1.827 0-1.44-.875-2.143-2.684-2.143h-3.971v7.773h.81v-3.376h3.145c1.388 0 1.716.276 1.753 1.482.027 1.262.08 1.676.253 1.843l.048.051h.835l-.13-.249zm-2.817-3.89h-3.087V7.93h3.199c1.227 0 1.824.444 1.824 1.353 0 1.021-.63 1.518-1.936 1.518z"/></g></svg>